<svg width="60" height="60" viewBox="0 0 60 60" fill="none" xmlns="http://www.w3.org/2000/svg">
<path d="M54.6725 32.9325C54.5975 32.9325 54.5225 32.9825 54.4725 33.1075C53.97 34.56 53.2675 35.4375 52.6925 35.4375C52.3675 35.4375 52.2425 35.0625 52.2425 34.5125C52.2425 33.0825 53.0925 30.05 53.5175 28.6475C53.5675 28.4725 53.5925 28.3225 53.5925 28.1975C53.5925 27.795 53.3675 27.5925 52.8175 27.5925C52.2425 27.5925 51.59 27.8175 50.9875 28.8975C50.7875 27.945 50.1375 27.5425 49.2325 27.5425C48.2075 27.5425 47.2025 28.22 46.3775 29.2975C45.55 30.375 44.5725 30.7275 43.845 30.55C44.37 29.275 44.57 28.295 44.57 27.5925C44.57 26.4675 44.02 25.79 43.12 25.79C41.765 25.79 40.9875 27.0925 40.9875 28.445C40.9875 29.4975 41.4625 30.575 42.5175 31.1025C41.64 33.0825 40.3625 34.8875 39.86 34.8875C39.235 34.8875 39.035 31.805 39.085 29.5975C39.11 28.3475 39.21 28.2725 39.21 27.895C39.21 27.67 39.06 27.52 38.4825 27.52C37.1525 27.52 36.7275 28.645 36.6775 29.95C36.6525 30.45 36.5775 30.925 36.4525 31.4025C35.9025 33.3825 34.7475 34.9125 33.995 34.9125C33.645 34.9125 33.545 34.5625 33.545 34.11C33.545 32.68 34.345 30.8775 34.345 29.3475C34.345 28.2225 33.845 27.5175 32.92 27.5175C31.815 27.5175 30.3875 28.8225 29.01 31.2525C29.46 29.3975 29.635 27.595 28.3075 27.595C28.0075 27.595 27.7317 27.67 27.48 27.82C27.3948 27.8594 27.3233 27.9232 27.2743 28.0033C27.2254 28.0834 27.2012 28.1762 27.205 28.27C27.33 30.25 25.6 35.3375 23.9725 35.3375C23.6725 35.3375 23.5225 35.0125 23.5225 34.4875C23.5225 33.0575 24.3725 30.025 24.7975 28.62C24.8442 28.4659 24.8695 28.306 24.8725 28.145C24.8725 27.77 24.6475 27.57 24.0975 27.57C23.5225 27.57 22.87 27.795 22.2675 28.87C22.0425 27.92 21.4175 27.52 20.5125 27.52C19.035 27.52 17.405 29.07 16.6775 31.1025C15.7025 33.81 13.7725 36.44 11.14 36.44C8.76 36.44 7.505 34.46 7.505 31.3275C7.505 26.7925 10.84 23.1075 13.295 23.1075C14.4725 23.1075 15.025 23.8575 15.025 25.0125C15.025 26.415 14.25 27.0425 14.25 27.5925C14.25 27.7425 14.375 27.9175 14.65 27.9175C15.725 27.9175 16.98 26.6675 16.98 24.9375C16.98 23.2075 15.625 21.98 13.17 21.98C9.085 21.98 5 26.065 5 31.33C5 35.5125 7.055 38.02 10.615 38.02C13.045 38.02 15.175 36.14 16.3025 33.935C16.4275 35.765 17.255 36.715 18.5325 36.715C19.66 36.715 20.5625 36.04 21.265 34.8625C21.54 36.0875 22.24 36.69 23.17 36.69C24.22 36.69 25.125 36.015 25.95 34.7875C25.95 35.7625 26.15 36.69 27.005 36.69C27.405 36.69 27.88 36.59 27.955 36.24C28.8575 32.555 31.065 29.5225 31.74 29.5225C31.94 29.5225 31.99 29.7225 31.99 29.9475C31.99 30.9525 31.29 33.0075 31.29 34.31C31.29 35.74 31.89 36.665 33.145 36.665C34.5225 36.665 35.925 34.9875 36.8525 32.505C37.1525 34.8125 37.78 36.665 38.7575 36.665C39.96 36.665 42.14 34.11 43.445 31.4025C43.945 31.4775 44.7225 31.4525 45.475 30.9275C45.15 31.7275 44.975 32.605 44.975 33.4575C44.975 35.965 46.175 36.665 47.2025 36.665C48.33 36.665 49.2325 35.99 49.935 34.8125C50.16 35.8625 50.76 36.64 51.84 36.64C53.52 36.64 54.9975 34.9125 54.9975 33.4825C55.0225 33.1825 54.8475 32.9325 54.6725 32.9325ZM19.585 35.3125C18.91 35.3125 18.635 34.6375 18.635 33.6075C18.635 31.83 19.86 28.8475 21.14 28.8475C21.69 28.8475 21.915 29.4975 21.915 30.325C21.915 32.13 20.765 35.3125 19.585 35.3125ZM42.9675 30C42.5675 29.525 42.4175 28.8475 42.4175 28.27C42.4175 27.545 42.6925 26.9425 42.9925 26.9425C43.2925 26.9425 43.4175 27.2425 43.4175 27.6925C43.3925 28.395 43.1425 29.4725 42.9675 30ZM48.255 35.3125C47.58 35.3125 47.305 34.5125 47.305 33.6075C47.305 31.88 48.53 28.8475 49.81 28.8475C50.36 28.8475 50.56 29.4975 50.56 30.325C50.585 32.13 49.46 35.3125 48.255 35.3125Z" fill="#F1A1B9"/>
</svg>
