<svg width="60" height="60" viewBox="0 0 60 60" fill="none" xmlns="http://www.w3.org/2000/svg">
<path d="M44.0525 0L14.9425 0.01C11.5175 0.01 8.0525 0.8725 5.5375 2.785C3.77423 4.06635 2.38477 5.79497 1.5125 7.7925C0.5825 9.825 0 12.55 0 14.8775L0.03 45.3775C0.035 49.3875 1.2275 53.02 3.6825 55.6575C6.1425 58.2975 9.8375 59.865 14.51 59.885L42.14 60C45.29 60.0125 49.8775 59.91 52.8975 58.215C55.585 56.7025 57.96 54.325 59.14 50.755C59.835 48.655 60.0025 45.545 60 42.8875L59.9475 15.0625C59.9425 12.8425 59.5725 10.005 58.58 7.7275C57.5175 5.2875 55.6275 3.19 52.775 1.665C50.8825 0.65 47.805 0 44.0525 0ZM44.0525 2.325C47.4975 2.325 50.3975 3.0625 51.6525 3.7375C54.095 5.045 55.5125 6.6525 56.375 8.6375C57.1625 10.44 57.55 13.12 57.5575 15.0675L57.6025 42.8925C57.6075 45.425 57.36 48.535 56.8575 50.0425C55.8675 53.0475 53.9925 54.9075 51.7 56.1975C49.665 57.34 45.17 57.68 42.15 57.6675L14.525 57.5575C10.3825 57.54 7.445 56.2225 5.46 54.0925C3.48 51.965 2.43 48.9425 2.43 45.38L2.4975 14.875C2.4975 12.8025 2.9875 10.3075 3.6825 8.7825C4.545 6.89 5.5575 5.765 7.095 4.5975C8.9625 3.175 12.17 2.425 15.2 2.425L44.0525 2.325ZM29.9025 10.8825C24.9625 11.105 21.8925 15.0275 21.8675 19.1075C21.915 22.715 25.955 27.81 29.0775 30.4325C29.3775 30.68 29.4625 30.705 29.9025 30.8825C30.0575 30.945 30.3975 30.765 30.72 30.545C31.62 29.9325 33.2025 28.1775 34.84 26.2C35.8761 24.9139 36.7424 23.4998 37.4175 21.9925C38.44 19.7675 38.07 17.995 38.005 17.2725C37.5436 15.679 36.6931 14.2254 35.53 13.0425C33.986 11.6511 31.981 10.8815 29.9025 10.8825ZM40.3325 30.6875C37.5643 30.7521 34.8251 31.2672 32.2225 32.2125C31.8475 32.3575 31.5725 32.4625 31.2875 32.6375C31.145 32.7275 31.0125 32.975 31.025 33.3675C31.0675 34.45 31.75 36.5625 32.585 39.0425C33.545 41.88 35.25 44.7175 37.195 45.8925C38.1359 46.4573 39.182 46.8244 40.2694 46.9714C41.3569 47.1184 42.463 47.0422 43.52 46.7475C45.6 46.14 47.5075 44.5775 48.425 42.8825C50.89 38.3375 48.9 34.0125 45.6225 31.84C44.505 31.1 42.79 30.7275 40.8975 30.69L40.3325 30.6875ZM19.2525 30.7825C18.624 30.7822 17.9961 30.8215 17.3725 30.9C15.8825 31.095 15.0425 31.5825 14.1475 32.175C12.4064 33.3141 11.1813 35.0903 10.735 37.1225C10.5475 38.5025 10.52 39.755 10.8175 40.89C11.9 44.3625 14.1325 46.445 17.935 47.02C19.525 47.09 21.36 46.8625 22.91 45.895C26.0825 43.94 28.11 37.97 28.94 34.04C29.0725 33.6 29.0275 33.1475 28.9075 32.99C28.895 32.8225 28.7975 32.7075 28.4325 32.5325C27.4375 32.0525 25.1325 31.49 22.495 31.0325C21.4232 30.8579 20.3385 30.7742 19.2525 30.7825Z" fill="#F1A1B9"/>
</svg>
