<svg width="60" height="60" viewBox="0 0 60 60" fill="none" xmlns="http://www.w3.org/2000/svg">
<mask id="mask0_120_39" style="mask-type:luminance" maskUnits="userSpaceOnUse" x="0" y="0" width="60" height="60">
<path d="M0 0H60V60H0V0Z" fill="white"/>
</mask>
<g mask="url(#mask0_120_39)">
<path d="M12.7002 0H15.4052V2.6725H17.8802V0H20.5852V8.09H17.8802V5.3825H15.4052V8.09H12.7027L12.7002 0ZM24.1402 2.6825H21.7602V0H29.2277V2.6825H26.8452V8.09H24.1402V2.6825ZM30.4127 0H33.2327L34.9677 2.8425L36.7002 0H39.5202V8.09H36.8277V4.08L34.9677 6.9575H34.9202L33.0577 4.0825V8.09H30.4127V0ZM40.8652 0H43.5727V5.4175H47.3727V8.0925H40.8652V0Z" fill="#F1A1B9"/>
<path fill-rule="evenodd" clip-rule="evenodd" d="M12.615 55.18L7.5 11.7925H52.5L47.3825 55.175L29.975 60L12.615 55.18ZM22.9575 31.43L22.4725 25.98H42.835L43.31 20.66H16.66L18.095 36.7525H36.5375L35.92 43.6525L29.985 45.2575H29.98L24.055 43.6575L23.675 39.415H18.33L19.075 47.77L29.975 50.795L40.8925 47.77L42.2225 32.86L42.3525 31.4325L22.9575 31.43Z" fill="#F1A1B9"/>
</g>
</svg>
