<svg width="60" height="60" viewBox="0 0 60 60" fill="none" xmlns="http://www.w3.org/2000/svg">
<path d="M35.7549 33.9375C35.8374 33.635 35.8649 33.305 35.8649 32.9475V30.94C35.8649 30.665 35.8399 30.335 35.7824 30.06C35.4824 28.74 34.4074 27.6675 32.8674 27.6675C30.6949 27.6675 29.4849 29.5925 29.4849 32.095C29.4849 34.5425 30.6949 36.33 32.8399 36.33C34.2149 36.33 35.4249 35.395 35.7549 33.9375Z" fill="#F1A1B9"/>
<path fill-rule="evenodd" clip-rule="evenodd" d="M16.9251 7.70492C25.6151 6.74224 34.385 6.74224 43.0751 7.70492C47.8226 8.23492 51.6501 11.9724 52.2076 16.7374C53.2374 25.5491 53.2374 34.4507 52.2076 43.2624C51.6501 48.0274 47.8226 51.7649 43.0776 52.2974C34.3866 53.2603 25.616 53.2603 16.9251 52.2974C12.1776 51.7649 8.35005 48.0274 7.79255 43.2649C6.76251 34.4524 6.76251 25.5499 7.79255 16.7374C8.35005 11.9724 12.1776 8.23492 16.9251 7.70492ZM35.8651 26.8149V19.2249H39.2501V34.9824C39.2501 36.3574 39.3051 37.8424 39.3601 38.7499H36.3351L36.1976 36.6324H36.1426C35.3451 38.1174 33.7226 39.0524 31.7701 39.0524C28.5801 39.0524 26.0501 36.3299 26.0501 32.2049C26.0251 27.7224 28.8276 25.0549 32.0451 25.0549C33.8876 25.0549 35.2076 25.8249 35.8126 26.8149H35.8651ZM20.8876 38.7499V20.2149H24.2701V38.7499H20.8876Z" fill="#F1A1B9"/>
</svg>
