<svg width="60" height="60" viewBox="0 0 60 60" fill="none" xmlns="http://www.w3.org/2000/svg">
<path fill-rule="evenodd" clip-rule="evenodd" d="M40.0575 11.2575C44.6325 10.9425 48.1675 13.6125 50.52 16.6925C52.89 19.8 54.5225 23.8575 55.42 27.8475C56.3125 31.8375 56.5525 36.125 55.81 39.78C55.0975 43.29 53.195 47.305 48.8925 48.5925C44.8425 49.8025 41.2925 48.0425 38.7625 45.9125C36.2225 43.775 34.0725 40.78 32.3825 37.9725C31.5914 36.6537 30.8492 35.3061 30.1575 33.9325C29.4665 35.3052 28.7252 36.6519 27.935 37.97C26.245 40.78 24.095 43.775 21.555 45.9125C19.0225 48.0425 15.475 49.8025 11.425 48.5925C7.12247 47.305 5.21997 43.2925 4.50747 39.78C3.76747 36.125 4.00747 31.8375 4.89997 27.8475C5.79497 23.8575 7.42747 19.7975 9.79997 16.6925C12.15 13.6125 15.685 10.9425 20.26 11.2575C24.55 11.5575 27.6675 14.465 29.61 16.93L30.16 17.6525L30.7075 16.9275C32.65 14.465 35.7675 11.555 40.0575 11.2575ZM19.74 18.74C18.69 18.6675 17.315 19.205 15.76 21.245C14.225 23.2575 12.95 26.2275 12.2175 29.49C11.485 32.7525 11.38 35.9375 11.8575 38.29C12.27 40.315 12.9325 41.0425 13.3375 41.2975L13.5075 41.3825L13.575 41.4075C14.155 41.5825 15.11 41.5325 16.725 40.1725C18.3375 38.8175 19.9825 36.64 21.51 34.105C22.19 32.9725 22.8225 31.8125 23.39 30.6975L24.04 29.385L24.6225 28.1425L25.1375 26.9975L25.575 25.98L25.9325 25.115C25.4482 24.1437 24.8942 23.2088 24.275 22.3175C22.665 20.0275 21.05 18.8325 19.74 18.7425V18.74ZM40.5775 18.74C39.2675 18.8325 37.6525 20.0275 36.0425 22.3175C35.4232 23.2088 34.8693 24.1437 34.385 25.115L34.9525 26.4725L35.4275 27.5575L35.695 28.1425L36.28 29.385L36.93 30.6975C37.4975 31.8125 38.1275 32.9725 38.8075 34.105C40.335 36.64 41.9825 38.8175 43.59 40.1725C45.0925 41.4375 46.0225 41.5675 46.615 41.44L46.745 41.4075C47.07 41.3075 47.9525 40.785 48.46 38.2875C48.935 35.9375 48.8325 32.7525 48.1 29.4875C47.37 26.2275 46.095 23.2575 44.5575 21.245C43 19.205 41.6275 18.67 40.5775 18.74Z" fill="#F1A1B9"/>
</svg>
