<svg width="60" height="60" viewBox="0 0 60 60" fill="none" xmlns="http://www.w3.org/2000/svg">
<path fill-rule="evenodd" clip-rule="evenodd" d="M30 57.5C45.1875 57.5 57.5 45.1875 57.5 30C57.5 14.8125 45.1875 2.5 30 2.5C14.8125 2.5 2.5 14.8125 2.5 30C2.5 45.1875 14.8125 57.5 30 57.5ZM8.895 33.96C10.69 28.1275 15.22 16.81 27.07 12.5V38.075C27.5175 38.525 28.6825 39.425 29.76 39.425C31.435 39.425 33.7975 38.075 33.7975 38.075V21.925C35.185 19.025 41.605 13.845 45.915 13.845C43.305 16.855 42.085 18.62 40.53 21.9225V38.0775C42.325 38.5275 45.915 38.0775 48.605 35.385C46.43 40.335 40.53 46.155 37.8375 46.155L33.7975 43.4625L29.76 47.5C25.7225 47.5 18.99 44.8075 16.2975 40.77H20.3375V25.345C15.4375 24.675 13.195 27.7775 8.895 33.96Z" fill="#F1A1B9"/>
</svg>
